name analog
datacolumns 19
datarows 35
range 0.1545 0.1715
endheader
time	ground_force_vx	ground_force_vy	ground_force_vz	ground_force_px	ground_force_py	ground_force_pz	l_ground_force_vx	l_ground_force_vy	l_ground_force_vz	l_ground_force_px	l_ground_force_py	l_ground_force_pz	ground_torque_x	ground_torque_y	ground_torque_z	l_ground_torque_x	l_ground_torque_y	l_ground_torque_z
0.1545	-0.0	-0.0	-0.0	-0.358401358127594	5.257914543151856	-74.91118621826172	-0.4417503476142883	-1.5897903442382812	-426.6703796386719	-0.0	-0.0	-0.0	-0.0	-0.0	-0.0	141995.453125	-30050.44921875	-3261.651611328125
0.155	-0.0	-0.0	-0.0	0.6236163377761841	5.261263370513916	-76.31062316894531	-1.1493244171142578	-1.5897903442382812	-428.7581787109375	-0.0	-0.0	-0.0	-0.0	-0.0	-0.0	142262.953125	-30202.279296875	-3147.24609375
0.1555	-0.0	-0.0	-0.0	0.6208215951919556	5.437866687774658	-75.21648406982422	-1.2429853677749634	-1.1512713432312012	-431.2022705078125	-0.0	-0.0	-0.0	-0.0	-0.0	-0.0	143097.890625	-30093.09765625	-3266.296142578125
0.156	-0.0	-0.0	-0.0	0.984221339225769	4.816912651062012	-74.14094543457031	-1.685504913330078	-1.233248949050903	-433.6377258300781	-0.0	-0.0	-0.0	-0.0	-0.0	-0.0	143899.515625	-30287.216796875	-3503.6904296875
0.1565	-0.0	-0.0	-0.0	1.8702821731567385	5.250331878662109	-71.69966888427734	-1.859426021575928	-1.2330185174942017	-436.4119567871094	-0.0	-0.0	-0.0	-0.0	-0.0	-0.0	145083.8125	-30010.369140625	-3766.62744140625
0.157	-0.0	-0.0	-0.0	1.795324683189392	4.993523597717285	-69.92522430419922	-2.042811393737793	-1.0586339235305786	-438.859375	-0.0	-0.0	-0.0	-0.0	-0.0	-0.0	145282.890625	-29901.205078125	-3709.7265625
0.1575	-0.0	-0.0	-0.0	2.4005126953125	4.6289496421813965	-69.19091796875	-2.3090548515319824	-1.323543667793274	-440.2599487304688	-0.0	-0.0	-0.0	-0.0	-0.0	-0.0	146283.265625	-29630.583984375	-3829.070068359375
0.158	-0.0	-0.0	-0.0	2.143542051315308	4.194103717803955	-65.00975036621094	-2.6585946083068848	-1.7691506147384644	-440.27484130859375	-0.0	-0.0	-0.0	-0.0	-0.0	-0.0	146505.875	-29814.884765625	-3917.080810546875
0.1585	-0.0	-0.0	-0.0	2.4086837768554688	3.1274185180664062	-63.551639556884766	-2.8430333137512207	-1.7678568363189695	-439.9366455078125	-0.0	-0.0	-0.0	-0.0	-0.0	-0.0	147225.328125	-29476.861328125	-4126.2509765625
0.159	-0.0	-0.0	-0.0	2.060168743133545	3.740703582763672	-59.36719512939453	-3.193588256835937	-2.194542407989502	-443.0615539550781	-0.0	-0.0	-0.0	-0.0	-0.0	-0.0	147718.484375	-29442.017578125	-4125.12255859375
0.1595	-0.0	-0.0	-0.0	2.772743463516236	3.2159056663513184	-58.97533416748047	-3.1064393520355225	-1.5913454294204712	-443.4286804199219	-0.0	-0.0	-0.0	-0.0	-0.0	-0.0	147885.703125	-29141.15625	-4182.109375
0.16	-0.0	-0.0	-0.0	2.9469454288482666	2.68140196800232	-57.58613586425781	-2.8387451171875	-1.149792194366455	-446.2030334472656	-0.0	-0.0	-0.0	-0.0	-0.0	-0.0	148654.25	-28955.234375	-4301.43359375
0.1605	-0.0	-0.0	-0.0	3.931570053100586	2.587932586669922	-53.70832061767578	-2.4839019775390625	-1.238190770149231	-447.5923461914063	-0.0	-0.0	-0.0	-0.0	-0.0	-0.0	149377.40625	-28533.607421875	-4270.869140625
0.161	-0.0	-0.0	-0.0	4.987576961517334	1.9641505479812624	-51.94995880126953	-2.75179386138916	-1.0546045303344729	-446.5926513671875	-0.0	-0.0	-0.0	-0.0	-0.0	-0.0	149834.84375	-28652.541015625	-4246.5361328125
0.1615	-0.0	-0.0	-0.0	5.8827996253967285	2.0466063022613525	-48.75227355957031	-2.6740288734436035	-0.2595438659191131	-451.7664794921875	-0.0	-0.0	-0.0	-0.0	-0.0	-0.0	150787.390625	-28189.66015625	-4566.587890625
0.162	-0.0	-0.0	-0.0	6.769344806671143	1.254921793937683	-45.94150924682617	-2.8387451171875	0.0958572030067443	-452.166259765625	-0.0	-0.0	-0.0	-0.0	-0.0	-0.0	151765.28125	-28199.958984375	-4659.2490234375
0.1625	-0.0	-0.0	-0.0	7.581052303314209	1.145820379257202	-43.77973556518555	-3.2862133979797363	1.1442848443984983	-458.05609130859375	-0.0	-0.0	-0.0	-0.0	-0.0	-0.0	153680.53125	-28105.6640625	-4921.04150390625
0.163	-0.0	-0.0	-0.0	8.3915433883667	-0.2443896532058715	-37.79025268554688	-4.417230606079102	1.676086664199829	-462.9430236816406	-0.0	-0.0	-0.0	-0.0	-0.0	-0.0	154709.140625	-28169.681640625	-5018.65966796875
0.1635	-0.0	-0.0	-0.0	9.71604824066162	-0.5249201059341431	-34.258453369140625	-3.6266937255859375	1.5835487842559814	-464.7125854492188	-0.0	-0.0	-0.0	-0.0	-0.0	-0.0	156096.984375	-28006.544921875	-5132.65869140625
0.164	-0.0	-0.0	-0.0	11.163494110107422	-1.146526336669922	-30.73468971252441	-3.6285617351531982	1.0662673711776731	-469.5836181640625	-0.0	-0.0	-0.0	-0.0	-0.0	-0.0	157120.578125	-28062.21484375	-5018.40185546875
0.1645	-0.0	-0.0	-0.0	12.410799026489258	-1.162906527519226	-27.119760513305664	-3.901052236557007	1.057647705078125	-472.0267333984375	-0.0	-0.0	-0.0	-0.0	-0.0	-0.0	158178.671875	-28022.857421875	-5105.46337890625
0.165	-0.0	-0.0	-0.0	13.37071132659912	-1.3434691429138184	-22.233129501342773	-4.433251857757568	0.5413166284561157	-474.5420837402344	-0.0	-0.0	-0.0	-0.0	-0.0	-0.0	159011.09375	-28335.138671875	-5336.42333984375
0.1655	-0.0	-0.0	-0.0	-0.0	-0.0	-0.0	-5.222221374511719	0.0093307793140411	-479.7527465820313	-0.0	-0.0	-0.0	-0.0	-0.0	-0.0	159975.40625	-28037.5546875	-5516.52197265625
0.166	-0.0	-0.0	-0.0	-0.0	-0.0	-0.0	-5.231516361236572	-0.4416084289550781	-482.51800537109375	-0.0	-0.0	-0.0	-0.0	-0.0	-0.0	161051.546875	-27863.048828125	-5549.3896484375
0.1665	-0.0	-0.0	-0.0	-0.0	-0.0	-0.0	-5.596206188201904	-0.8047541379928589	-483.953369140625	-0.0	-0.0	-0.0	-0.0	-0.0	-0.0	161406.375	-27989.599609375	-5404.69482421875
0.167	-0.0	-0.0	-0.0	-0.0	-0.0	-0.0	-5.586226463317871	-1.498927116394043	-487.3654174804688	-0.0	-0.0	-0.0	-0.0	-0.0	-0.0	162033.78125	-27471.228515625	-5551.52880859375
0.1675	-0.0	-0.0	-0.0	-0.0	-0.0	-0.0	-6.4081196784973145	-2.457368850708008	-487.71331787109375	-0.0	-0.0	-0.0	-0.0	-0.0	-0.0	162356.796875	-27338.720703125	-5762.63134765625
0.168	-0.0	-0.0	-0.0	-0.0	-0.0	-0.0	-7.790509700775146	-2.7273261547088623	-488.4736633300781	-0.0	-0.0	-0.0	-0.0	-0.0	-0.0	162636.34375	-26835.0	-5967.8115234375
0.1685	-0.0	-0.0	-0.0	-0.0	-0.0	-0.0	-8.865577697753906	-3.267902374267578	-488.8555603027344	-0.0	-0.0	-0.0	-0.0	-0.0	-0.0	162662.421875	-26147.177734375	-6347.88232421875
0.169	-0.0	-0.0	-0.0	-0.0	-0.0	-0.0	-9.74692440032959	-3.888957262039185	-489.8375854492188	-0.0	-0.0	-0.0	-0.0	-0.0	-0.0	162955.140625	-26006.6328125	-6624.88330078125
0.1695	-0.0	-0.0	-0.0	-0.0	-0.0	-0.0	-11.088848114013672	-3.974475860595703	-490.6032409667969	-0.0	-0.0	-0.0	-0.0	-0.0	-0.0	162826.03125	-25386.267578125	-6773.2568359375
0.17	-0.0	-0.0	-0.0	-0.0	-0.0	-0.0	-11.798534393310549	-4.401409149169922	-489.84814453125	-0.0	-0.0	-0.0	-0.0	-0.0	-0.0	162800.28125	-25012.697265625	-7246.54931640625
0.1705	-0.0	-0.0	-0.0	-0.0	-0.0	-0.0	-12.496207237243652	-3.910076141357422	-492.68841552734375	-0.0	-0.0	-0.0	-0.0	-0.0	-0.0	162979.984375	-24536.7421875	-7513.87841796875
0.171	-0.0	-0.0	-0.0	-0.0	-0.0	-0.0	-13.13227653503418	-4.696384429931641	-493.3391418457031	-0.0	-0.0	-0.0	-0.0	-0.0	-0.0	163342.8125	-24264.828125	-7543.138671875
0.1715	-0.0	-0.0	-0.0	-0.0	-0.0	-0.0	-13.645732879638672	-5.210979461669922	-493.0516052246094	-0.0	-0.0	-0.0	-0.0	-0.0	-0.0	163823.84375	-23952.255859375	-7432.2978515625
